# xmcd
#
# Track frame offsets:
# 182
# 13482
# 27450
# 40802
# 54767
# 67345
# 79655
# 94045
# 106372
# 116590
# 128762
# 140500
# 148110
# 161027
# 171532
# 182420
# 194545
# 206425
# 217157
# 228645
#
# Disc length: 3208 seconds
#
#
# Revision: 0
# Processed by: cddbd v1.5.1PL0 Copyright (c) Steve Scherf et al.
# Submitted via: FreeRIP 2.941 
#
DISCID=300c8614
DTITLE=Jim Reeves - Whispering Hope
DYEAR=1996
DGENRE=Gospel
TTITLE0=It Is No Secret
TTITLE1=Whispering Hope
TTITLE2=My Cathedral
TTITLE3=Have Thine Own Way, Lord
TTITLE4=This World Is Not My Home
TTITLE5=Precious Memories
TTITLE6=Beyond The Clouds
TTITLE7=I've Lived A Lot In My Time
TTITLE8=The Flowers, The Sunset, The Trees
TTITLE9=He Will
TTITLE10=I'll Fly Away
TTITLE11=Teach Me How To Pray
TTITLE12=Oh Gentle Sheperd
TTITLE13=In The Garden
TTITLE14=Take My Hand, Precious Lord
TTITLE15=God Be With You
TTITLE16=May The Good Lord Bless And Keep You
TTITLE17=The Night Watch
TTITLE18=Where Do I Go From Here
TTITLE19=We Thank Thee
EXTD=Whispering Hope (20 Gospel Favorites]\nPair Records
EXTT0=
EXTT1=
EXTT2=
EXTT3=
EXTT4=
EXTT5=
EXTT6=
EXTT7=
EXTT8=
EXTT9=
EXTT10=
EXTT11=
EXTT12=
EXTT13=
EXTT14=
EXTT15=
EXTT16=
EXTT17=
EXTT18=
EXTT19=
PLAYORDER=
